{
  "accessors": [
    {
      "bufferView": 2,
      "componentType": 5126,
      "count": 748,
      "max": [
        1.3068013191223145,
        1.306801199913025,
        8.8496732711792
      ],
      "min": [
        -1.306801199913025,
        -1.306801199913025,
        -1.0753586292266846
      ],
      "type": "VEC3"
    },
    {
      "bufferView": 2,
      "byteOffset": 8976,
      "componentType": 5126,
      "count": 748,
      "max": [
        0.9807853698730469,
        0.9807853698730469,
        1.0
      ],
      "min": [
        -0.9807853698730469,
        -0.9807853698730469,
        -1.0
      ],
      "type": "VEC3"
    },
    {
      "bufferView": 1,
      "componentType": 5126,
      "count": 748,
      "max": [
        1.0,
        1.0
      ],
      "min": [
        0.0,
        0.01000000536441803
      ],
      "type": "VEC2"
    },
    {
      "bufferView": 0,
      "componentType": 5125,
      "count": 1188,
      "type": "SCALAR"
    },
    {
      "bufferView": 2,
      "byteOffset": 17952,
      "componentType": 5126,
      "count": 16,
      "max": [
        1.1101921796798706,
        1.1101921796798706,
        8.670724868774414
      ],
      "min": [
        -1.1101921796798706,
        -1.1101921796798706,
        8.670724868774414
      ],
      "type": "VEC3"
    },
    {
      "bufferView": 2,
      "byteOffset": 18144,
      "componentType": 5126,
      "count": 16,
      "max": [
        -1.8955508096496487e-07,
        0.0,
        1.0
      ],
      "min": [
        -1.8955508096496487e-07,
        0.0,
        1.0
      ],
      "type": "VEC3"
    },
    {
      "bufferView": 1,
      "byteOffset": 5984,
      "componentType": 5126,
      "count": 16,
      "max": [
        0.4538918733596802,
        0.4538917541503906
      ],
      "min": [
        0.04610813409090042,
        0.04610813781619072
      ],
      "type": "VEC2"
    },
    {
      "bufferView": 0,
      "byteOffset": 4752,
      "componentType": 5125,
      "count": 42,
      "type": "SCALAR"
    },
    {
      "bufferView": 2,
      "byteOffset": 18336,
      "componentType": 5126,
      "count": 20,
      "max": [
        -0.9238795042037964,
        0.39115890860557556,
        4.198147773742676
      ],
      "min": [
        -1.0928698778152466,
        0.0,
        3.5344643592834473
      ],
      "type": "VEC3"
    },
    {
      "bufferView": 2,
      "byteOffset": 18576,
      "componentType": 5126,
      "count": 20,
      "max": [
        0.1313464492559433,
        0.9913200736045837,
        1.0
      ],
      "min": [
        -0.9772262573242188,
        -0.9913200736045837,
        -1.0
      ],
      "type": "VEC3"
    },
    {
      "bufferView": 1,
      "byteOffset": 6112,
      "componentType": 5126,
      "count": 20,
      "max": [
        0.25,
        0.8712962865829468
      ],
      "min": [
        0.1875,
        0.8238903284072876
      ],
      "type": "VEC2"
    },
    {
      "bufferView": 0,
      "byteOffset": 4920,
      "componentType": 5125,
      "count": 30,
      "type": "SCALAR"
    }
  ],
  "asset": {
    "extras": {
      "author": "KTshka (https://sketchfab.com/K0Te)",
      "license": "SKETCHFAB Standard (https://sketchfab.com/licenses)",
      "source": "https://sketchfab.com/3d-models/flashlight-low-poly-b7ba439a57e0420ba34fee2a29a1c71c",
      "title": "Flashlight Low Poly"
    },
    "generator": "Sketchfab-16.75.0",
    "version": "2.0"
  },
  "bufferViews": [
    {
      "buffer": 0,
      "byteLength": 5040,
      "name": "floatBufferViews",
      "target": 34963
    },
    {
      "buffer": 0,
      "byteLength": 6272,
      "byteOffset": 5040,
      "byteStride": 8,
      "name": "floatBufferViews",
      "target": 34962
    },
    {
      "buffer": 0,
      "byteLength": 18816,
      "byteOffset": 11312,
      "byteStride": 12,
      "name": "floatBufferViews",
      "target": 34962
    }
  ],
  "buffers": [
    {
      "byteLength": 30128,
      "uri": "scene.bin"
    }
  ],
  "extensionsUsed": [
    "KHR_materials_emissive_strength"
  ],
  "materials": [
    {
      "doubleSided": true,
      "name": "Material",
      "pbrMetallicRoughness": {
        "baseColorFactor": [
          0.0074883,
          0.0074883,
          0.0074883,
          1.0
        ],
        "metallicFactor": 0.0,
        "roughnessFactor": 0.998806635827144
      }
    },
    {
      "doubleSided": true,
      "emissiveFactor": [
        0.984351,
        1.0,
        0.578399
      ],
      "extensions": {
        "KHR_materials_emissive_strength": {
          "emissiveStrength": 10.0
        }
      },
      "name": "Material.002",
      "pbrMetallicRoughness": {
        "baseColorFactor": [
          0.145626,
          0.145626,
          0.145626,
          1.0
        ],
        "metallicFactor": 0.0,
        "roughnessFactor": 0.9674370364708615
      }
    },
    {
      "doubleSided": true,
      "name": "Material.001",
      "pbrMetallicRoughness": {
        "baseColorFactor": [
          0.424897,
          0.00377042,
          0.0124027,
          1.0
        ],
        "metallicFactor": 0.0,
        "roughnessFactor": 0.9789976909313328
      }
    }
  ],
  "meshes": [
    {
      "name": "Cylinder_Material_0",
      "primitives": [
        {
          "attributes": {
            "NORMAL": 1,
            "POSITION": 0,
            "TEXCOORD_0": 2
          },
          "indices": 3,
          "material": 0,
          "mode": 4
        }
      ]
    },
    {
      "name": "Cylinder_Material.002_0",
      "primitives": [
        {
          "attributes": {
            "NORMAL": 5,
            "POSITION": 4,
            "TEXCOORD_0": 6
          },
          "indices": 7,
          "material": 1,
          "mode": 4
        }
      ]
    },
    {
      "name": "Cylinder_Material.001_0",
      "primitives": [
        {
          "attributes": {
            "NORMAL": 9,
            "POSITION": 8,
            "TEXCOORD_0": 10
          },
          "indices": 11,
          "material": 2,
          "mode": 4
        }
      ]
    }
  ],
  "nodes": [
    {
      "children": [
        1
      ],
      "matrix": [
        1.0,
        0.0,
        0.0,
        0.0,
        0.0,
        2.220446049250313e-16,
        -1.0,
        0.0,
        0.0,
        1.0,
        2.220446049250313e-16,
        0.0,
        0.0,
        0.0,
        0.0,
        1.0
      ],
      "name": "Sketchfab_model"
    },
    {
      "children": [
        2
      ],
      "matrix": [
        0.009999999776482582,
        0.0,
        0.0,
        0.0,
        0.0,
        0.0,
        0.009999999776482582,
        0.0,
        0.0,
        -0.009999999776482582,
        0.0,
        0.0,
        0.0,
        0.0,
        0.0,
        1.0
      ],
      "name": "3a09923d70e844eb959bea49ab185a0e.fbx"
    },
    {
      "children": [
        3
      ],
      "name": "RootNode"
    },
    {
      "children": [
        4,
        5,
        6
      ],
      "matrix": [
        -4.371139006309477e-06,
        -99.99999999999991,
        -1.1102230246251565e-14,
        0.0,
        -4.371139011860592e-06,
        1.9984014443252818e-13,
        -99.99999999999991,
        0.0,
        99.99999999999982,
        -4.371139011860592e-06,
        -4.371139006309477e-06,
        0.0,
        0.0,
        100.0,
        0.0,
        1.0
      ],
      "name": "Cylinder"
    },
    {
      "mesh": 0,
      "name": "Cylinder_Material_0"
    },
    {
      "mesh": 1,
      "name": "Cylinder_Material.002_0"
    },
    {
      "mesh": 2,
      "name": "Cylinder_Material.001_0"
    }
  ],
  "scene": 0,
  "scenes": [
    {
      "name": "Sketchfab_Scene",
      "nodes": [
        0
      ]
    }
  ]
}
